<svg xmlns="http://www.w3.org/2000/svg" version="1.1" xmlns:xlink="http://www.w3.org/1999/xlink" xmlns:svgjs="http://svgjs.dev/svgjs" width="1440" height="860" preserveAspectRatio="none" viewBox="0 0 1440 860"><g mask="url(&quot;#SvgjsMask1010&quot;)" fill="none"><rect width="1440" height="860" x="0" y="0" fill="rgba(245, 245, 245, 1)"></rect><path d="M107.5 0C159.58 72.23 126.41 108.82 155 215C180.16 308.46 168.23 399.29 215 399.29C271.95 399.29 329.81 319.2 362.43 215C392.31 119.56 316.15 75.9 340 0C349.93 -31.6 385 0 430 0C486.91 0 513.31 -36.06 543.82 0C604.27 71.44 567.94 118.37 611.92 215C618.53 229.51 628.12 221.68 645 222.29C752.16 226.16 753.1 227.16 860 223.96C874.93 223.51 888.67 218.76 888.67 215C888.67 211.34 869.88 219.52 860 209.11C767.82 112.02 684.54 63.65 684.54 0C684.54 -40.91 772.27 0 860 0C967.5 0 967.5 0 1075 0C1182.5 0 1182.5 0 1290 0C1397.5 0 1443.74 -46.24 1505 0C1551.24 34.89 1551.15 123.8 1505 162.26C1443.65 213.38 1395.17 160.86 1290 179.17C1243.69 187.23 1202.05 196.48 1202.05 215C1202.05 233.74 1256.28 221.27 1290 253.7C1368.06 328.77 1357.5 342.09 1425.62 430C1465 480.83 1483.94 474.15 1505 531.18C1523.63 581.65 1505 588.09 1505 645C1505 752.5 1558.75 806.25 1505 860C1451.25 913.75 1397.5 860 1290 860C1182.5 860 1182.5 860 1075 860C987.97 860 982.21 874.55 900.95 860C874.71 855.3 880.18 821.49 860 821.49C840.45 821.49 846.84 855.46 821.49 860C739.34 874.71 733.24 860 645 860C569.2 860 532.47 904.03 493.4 860C437.07 796.53 481.6 748.41 454.19 645C449.9 628.81 443.1 620.81 430 620.81C414.03 620.81 405.43 626.85 396.05 645C343.62 746.44 371.4 782.79 306.38 860C280.87 890.29 260.69 860 215 860C107.5 860 78.66 888.84 0 860C-28.84 849.43 -10.54 818.33 0 781.17C19.95 710.83 60.97 706.07 60.97 645C60.97 612.45 9.96 629.05 0 593.94C-20.53 521.55 0 511.97 0 430C0 322.5 0 322.5 0 215C0 107.5 -35.83 71.67 0 0C17.92 -35.83 82.08 -35.27 107.5 0" stroke="rgba(188, 164, 220, 0.29)" stroke-width="2"></path><path d="M0 0C24.11 0 57.45 104.01 92.5 215C125.34 319.01 162.06 341.45 135.79 430C115.81 497.32 42.96 526.75 0 526.75C-24.93 526.75 0 478.38 0 430C0 322.5 0 322.5 0 215C0 107.5 -22.14 0 0 0" stroke="rgba(188, 164, 220, 0.29)" stroke-width="2"></path><path d="M860 135.48C786.04 100 746.32 41.23 746.32 0C746.32 -26.51 803.16 0 860 0C967.5 0 967.5 0 1075 0C1182.5 0 1182.5 0 1290 0C1397.5 0 1421.21 -23.71 1505 0C1528.71 6.71 1528.64 52.09 1505 60.85C1421.14 91.91 1394.38 56.13 1290 79.63C1179.38 104.54 1185.54 143.31 1075 157.67C970.54 171.24 950.38 178.84 860 135.48" stroke="rgba(188, 164, 220, 0.29)" stroke-width="2"></path><path d="M282.39 430C351.53 344 339.16 294.38 430 265.17C520.46 236.08 536.48 295.53 645 313.39C751.48 330.91 754.63 346.6 860 335.94C969.63 324.85 969.53 263.69 1075 269.89C1184.53 276.32 1192.33 302.83 1290 361.2C1326.29 382.89 1316.21 395.79 1342.92 430C1423.71 533.48 1426.48 532.41 1505 636.57C1507.52 639.91 1505 640.79 1505 645C1505 752.5 1556.51 804.01 1505 860C1457.61 911.51 1400.3 870.95 1307.2 860C1292.8 858.31 1298.27 834.71 1290 834.71C1281.99 834.71 1288.52 858.37 1274.64 860C1181.02 871.01 1174.82 860 1075 860C1030.64 860 1022.67 880.1 986.27 860C915.17 820.74 922.22 741.27 860 741.27C799.72 741.27 809.6 822.27 741.27 860C702.1 881.63 693.13 860 645 860C603.65 860 579.26 889.48 562.31 860C517.45 781.98 562.98 741.32 521.38 645C496.82 588.13 479.5 553.63 430 553.63C369.68 553.63 351.68 586.74 301.75 645C244.18 712.18 255.79 804.52 215 804.52C175.51 804.52 141.19 722.03 141.19 645C141.19 586.07 178.09 588.8 215 532.61C248.69 481.3 244.03 477.72 282.39 430" stroke="rgba(188, 164, 220, 0.29)" stroke-width="2"></path><path d="M0 145.27C7.82 145.27 24.59 177.89 30 215C45.34 320.26 53.62 331.12 41.49 430C38.62 453.4 13.13 459.56 0 459.56C-7.62 459.56 0 444.78 0 430C0 322.5 0 322.5 0 215C0 180.13 -7.18 145.27 0 145.27" stroke="rgba(188, 164, 220, 0.29)" stroke-width="2"></path><path d="M860 61.85C823.73 56.66 808.1 18.82 808.1 0C808.1 -12.1 834.05 0 860 0C967.5 0 967.5 0 1075 0C1141.15 0 1207.31 -9.36 1207.31 0C1207.31 9.75 1142.56 26.19 1075 38.22C968.9 57.11 957.18 75.77 860 61.85" stroke="rgba(188, 164, 220, 0.29)" stroke-width="2"></path><path d="M362.61 430C362.61 394.79 385.66 358.76 430 354.75C526.86 346 537.12 381.42 645 404.49C713.03 419.04 724.85 397.92 781.82 430C832.35 458.46 823.65 525.56 860 525.56C893.45 525.56 876.83 459.31 921.43 430C984.33 388.66 999.3 384.26 1075 384.26C1132.66 384.26 1188.16 386.41 1188.16 430C1188.16 516.78 1131.58 537.5 1075 645C1075 645 1075 645 1075 645C967.5 653.02 949.79 614.4 860 661.04C742.81 721.9 762.74 765.89 661.04 860C655.24 865.37 653.02 860 645 860C638.11 860 632.89 866.36 631.22 860C604.67 758.86 638.29 737.33 588.56 645C537.68 550.55 511.16 563.67 430 486.44C398.18 456.17 362.61 460.64 362.61 430" stroke="rgba(188, 164, 220, 0.29)" stroke-width="2"></path><path d="M1071.59 860C1071.59 754.18 1072.23 645 1075 645C1077.77 645 1082.68 756.21 1082.68 860C1082.68 863.71 1078.84 860 1075 860C1073.29 860 1071.59 861.68 1071.59 860" stroke="rgba(188, 164, 220, 0.29)" stroke-width="2"></path></g><defs><mask id="SvgjsMask1010"><rect width="1440" height="860" fill="#ffffff"></rect></mask></defs></svg>